# xmcd CD database file
#
# Track frame offsets:
#	150
#	19970
#	43335
#	58020
#	71805
#	86597
#	105012
#	119277
#	143112
#	157517
#	174372
#	190855
#	208332
#	227707
#
# Disc length: 3217 seconds
#
# Revision: 0
# Processed by: cddbd v1.5.1PL0 Copyright (c) Steve Scherf et al.
# Submitted via: CDex 1.51
#
DISCID=ba0c8f0e
DTITLE=Reflections - Malt Shop Memories 50's
DYEAR=1900
DGENRE=Blues
TTITLE0=Sleepwalk
TTITLE1=You Send Me
TTITLE2=Under the Boardwalk
TTITLE3=Sea of Love
TTITLE4=Save the Last Dance for Me
TTITLE5=Love Me Tender
TTITLE6=Crying
TTITLE7=It's Not for Me to Say
TTITLE8=It's Only Make Believe
TTITLE9=Take Good Care of My Baby
TTITLE10=Dedicated to the One I Love
TTITLE11=Who's Sorry Now
TTITLE12=Venus
TTITLE13=Twilight Time
EXTD=
EXTT0=
EXTT1=
EXTT2=
EXTT3=
EXTT4=
EXTT5=
EXTT6=
EXTT7=
EXTT8=
EXTT9=
EXTT10=
EXTT11=
EXTT12=
EXTT13=
PLAYORDER=
